<?xml version="1.0" encoding="utf-8"?>
<!-- Generator: Adobe Illustrator 24.1.2, SVG Export Plug-In . SVG Version: 6.00 Build 0)  -->
<svg version="1.1" id="圖層_1" xmlns="http://www.w3.org/2000/svg" xmlns:xlink="http://www.w3.org/1999/xlink" x="0px" y="0px"
	 viewBox="0 0 949 256" style="enable-background:new 0 0 949 256;" xml:space="preserve">
<style type="text/css">
	.st0{display:none;fill:#2366D1;}
	.st1{display:none;fill:#609DFF;}
	.st2{display:none;fill:#A4C7FF;}
	.st3{display:none;}
	.st4{display:inline;fill:#333333;}
	.st5{fill:#E95513;}
</style>
<path class="st0" d="M110.9,128l110.9,64l-110.9,64L0,192L110.9,128z"/>
<path class="st1" d="M110.9,64l110.9,64l-110.9,64L0,128L110.9,64z"/>
<path class="st2" d="M110.9,0l110.9,64l-110.9,64L0,64L110.9,0z"/>
<g transform="translate(300, 55.695), scale(0.7)" class="st3">
	<path vector-effect="non-scaling-stroke" class="st4" d="M613.9,10.2v127c0,0.9,0,1.9,0.1,2.8c0.4,8.5,2.6,16.3,6.6,23.3
		c0.4,0.6,0.7,1.2,1.1,1.8c0.9,1.4,1.8,2.8,2.9,4.1c4.5,5.8,10.3,10.6,17.2,14.3c0.6,0.3,1.1,0.6,1.7,0.9c1.6,0.8,3.2,1.5,4.9,2.2
		c7.4,2.9,15.6,4.5,24.5,4.7c0.8,0,1.7,0,2.5,0c0.9,0,1.9,0,2.8,0c9.8-0.3,18.6-2.2,26.6-5.7c0.8-0.4,1.7-0.8,2.5-1.2
		c9.3-4.6,16.6-11,21.9-19.2c0.8-1.2,1.5-2.5,2.2-3.8c3.5-6.7,5.4-14.2,5.7-22.3c0-0.6,0-1.2,0-1.8v-127c0-0.3,0-0.6,0-0.9
		c0.2-2,0.9-3.5,2.1-4.7c0.8-0.7,1.7-1.3,2.7-1.6c0.8-0.3,1.8-0.4,2.8-0.4c1.5,0,2.8,0.3,3.9,0.8c0.6,0.3,1.2,0.7,1.7,1.2
		c1.2,1.2,1.9,2.9,2,4.9c0,0.2,0,0.5,0,0.7v127c0,13.1-3.1,24.7-9.2,35c-0.2,0.3-0.4,0.7-0.6,1c-6.6,10.5-15.7,18.7-27.4,24.6
		c-10.8,5.4-23,8.4-36.5,8.8c-1.1,0-2.2,0-3.3,0c-14.8,0-28.1-2.9-39.8-8.8c-0.9-0.5-1.8-0.9-2.7-1.4c-9.2-5.1-16.7-11.8-22.5-20
		c-0.7-1-1.4-2.1-2.1-3.2c-6.5-10.5-9.7-22.5-9.7-36v-127c0-0.3,0-0.6,0-0.9c0.2-2,0.9-3.5,2.1-4.7c0.8-0.7,1.7-1.3,2.7-1.6
		c0.8-0.3,1.8-0.4,2.8-0.4c1.5,0,2.8,0.3,3.9,0.8c0.6,0.3,1.2,0.7,1.7,1.2c1.2,1.2,1.9,2.9,2,4.9C613.9,9.7,613.9,10,613.9,10.2z
		 M895.5,9c-0.2-0.1-0.4-0.2-0.6-0.3C884.6,2.9,873.4,0,861.2,0c-0.8,0-1.6,0-2.4,0c-11,0.3-20.7,2.3-29.2,6.2
		c-0.5,0.2-1,0.5-1.5,0.7c-8.4,4.1-15,9.8-19.8,17c-5,7.6-7.6,16.3-7.6,26.2c0,13,4.8,24.2,14.4,33.5c0.6,0.6,1.2,1.2,1.8,1.7
		c0.9,0.8,1.7,1.5,2.7,2.2c10,7.9,23.2,13.3,39.4,15.9c0.9,0.1,1.8,0.3,2.6,0.4c14.9,2,26.5,6.4,34.7,13c0.7,0.6,1.4,1.1,2,1.7
		c0.3,0.3,0.6,0.5,0.8,0.8c7.7,7.5,11.6,16.8,11.6,28c0,13.5-4.2,23.9-12.7,31.2c-1.4,1.2-2.9,2.3-4.5,3.3
		c-7.5,4.8-16.9,7.4-28.2,7.6c-0.7,0-1.4,0-2,0c-0.7,0-1.5,0-2.2,0c-10.5-0.2-19.7-2.1-27.6-5.6c-1-0.5-2.1-0.9-3.1-1.5
		c-0.5-0.3-1-0.5-1.5-0.8c-7.2-4-12.9-9.2-17.1-15.7c-0.7-1.1-1.3-2.2-2-3.3c-0.1-0.1-0.1-0.2-0.2-0.4c-1.4-2.7-3.5-4.2-6.2-4.5
		c-0.3,0-0.7-0.1-1-0.1c-0.1,0-0.2,0-0.3,0c-2.2,0.1-4,0.7-5.4,2c-0.2,0.2-0.5,0.5-0.7,0.7c-0.8,1-1.3,2.1-1.4,3.4
		c0,0.3-0.1,0.7-0.1,1c0,0.3,0,0.7,0.1,1c0.1,0.4,0.2,0.8,0.3,1.1c0.1,0.3,0.2,0.6,0.4,0.9c0.2,0.5,0.5,0.9,0.7,1.4
		c5.3,9.9,13,17.9,23,24.1c0.9,0.5,1.8,1.1,2.7,1.6c11.8,6.6,25.7,9.9,41.7,9.9c10.7,0,20.3-1.7,28.8-5.1c1.4-0.6,2.7-1.2,4.1-1.8
		c9.5-4.6,16.8-11.3,22-20c0.8-1.3,1.5-2.6,2.1-4c3.8-7.8,5.7-16.7,5.7-26.8c0-0.7,0-1.4,0-2.1c-0.4-13.5-4.6-24.7-12.6-33.6
		c-0.7-0.8-1.5-1.6-2.2-2.3c-9.9-9.6-25.6-16.3-47.1-19.8c-0.6-0.1-1.2-0.2-1.8-0.3c-15.5-2.8-27-7.3-34.5-13.5
		c-0.3-0.3-0.6-0.5-0.9-0.8c-7.2-6.3-10.8-14.1-10.8-23.3c0,0,0-0.1,0-0.1c0-11.4,4-20.2,11.9-26.6c0.3-0.2,0.6-0.5,0.9-0.7
		c7.5-5.7,17.6-8.6,30.3-8.9c0.7,0,1.3,0,2,0c0.3,0,0.6,0,0.9,0c17.8,0.2,31.6,7,41.5,20.2c0.5,0.7,1,1.3,1.4,2
		c1.5,2.3,3.5,3.5,6.1,3.8c0.3,0,0.7,0.1,1.1,0.1c0.2,0,0.4,0,0.6,0c1.1,0,1.9-0.2,2.5-0.5c0,0,0.1,0,0.1-0.1
		c0.7-0.3,1.3-0.8,1.8-1.2c0.5-0.4,0.9-0.9,1.3-1.4c0.5-0.8,0.9-1.6,1-2.5c0.1-0.4,0.1-0.8,0.1-1.2c0-1.5-0.3-2.9-1-4.1
		C913.6,22.1,905.9,14.9,895.5,9z M160.3,0.1C159,0,157.7,0,156.4,0c-16.6,0-31.9,3.8-46,11.5c-1.5,0.8-2.9,1.6-4.3,2.5
		c-0.5,0.3-1,0.6-1.6,1c-13.2,8.4-24,19.2-32.4,32.6c-0.8,1.3-1.6,2.6-2.4,4c-9,15.7-13.4,32.7-13.4,50.9c0,16.6,3.7,32.2,11.2,46.8
		c0.7,1.4,1.5,2.9,2.3,4.3c9,15.8,21.2,28.3,36.6,37.6c0.5,0.3,1.1,0.6,1.6,0.9c14.9,8.7,31,13,48.3,13c27.3,0,48.3-7.3,63-22
		c1-1.2,1.6-2.6,1.8-4.4c0-0.3,0-0.6,0-1c0-1.8-0.6-3.4-1.7-4.8c-0.2-0.3-0.5-0.6-0.8-0.8c0,0-0.1-0.1-0.1-0.1
		c-1.6-1.5-3.4-2.2-5.4-2.2c-0.6,0-1.1,0.1-1.7,0.2c-0.4,0.1-0.8,0.3-1.3,0.5c-0.3,0.2-0.6,0.3-0.9,0.5
		c-15.2,12.5-32.9,18.7-53,18.7c-13.8,0-26.7-3.2-38.7-9.7c-1.2-0.7-2.5-1.4-3.7-2.1c-13.1-7.9-23.4-18.5-31-31.9
		c-6.9-12.2-10.7-25.3-11.3-39.4c-0.1-1.4-0.1-2.8-0.1-4.2c0-15.2,3.8-29.5,11.5-42.9c0-0.1,0.1-0.2,0.2-0.3
		c7.7-13.3,18-23.9,31-31.9c0.9-0.6,1.9-1.1,2.9-1.7c11-6.2,22.7-9.6,35.1-10.2c1.4-0.1,2.8-0.1,4.2-0.1c0.1,0,0.3,0,0.4,0
		c15.6,0.1,28.9,3.2,40,9.5c4,2.2,7.7,4.9,11,7.9c0.2,0.1,0.3,0.3,0.5,0.4c2.2,1.8,4.2,2.7,5.9,2.7c0.2,0,0.4,0,0.6,0
		c1.6-0.1,3-0.6,4.1-1.5c0.3-0.3,0.6-0.6,0.9-0.9c0.1-0.1,0.2-0.2,0.2-0.3c1.2-1.6,1.8-3.3,1.8-5.2c0-0.2,0-0.4,0-0.6
		c-0.1-1.9-0.9-3.4-2.3-4.5c0,0-0.1-0.1-0.1-0.1C202.3,8.4,182.6,0.9,160.3,0.1z M551.2,198.4l-47.1-75.3h-4.6h-41.2v71.7
		c0,2.2-0.7,4.1-2,5.5c-1.3,1.4-3.1,2.1-5.3,2.2c-0.1,0-0.2,0-0.3,0c-2.1,0-3.8-0.6-5.2-1.9c-0.1-0.1-0.2-0.2-0.3-0.3
		c-0.3-0.3-0.6-0.7-0.9-1c-0.9-1.2-1.3-2.7-1.3-4.4c0,0,0,0,0,0V10.2c0-0.3,0-0.6,0-0.9c0.2-2,0.9-3.5,2.1-4.7
		c0.8-0.7,1.7-1.3,2.7-1.6c0.8-0.3,1.8-0.4,2.8-0.4h48.9c12.3,0,23.3,2.6,33,7.7c9,4.7,16.1,11.2,21.5,19.4c0.4,0.7,0.9,1.4,1.3,2.1
		c2.1,3.6,3.9,7.4,5.2,11.4c2,6.2,3,12.9,3,20.1c0,12.6-3.2,23.7-9.5,33.2c-0.7,1-1.4,2-2.1,3c-0.8,1.1-1.7,2.1-2.6,3.2
		c-7.1,8-16,13.7-27,17.2c-0.6,0.2-1.2,0.4-1.8,0.5l44,70.4c1.4,2.4,2,4.4,2,5.9c0,0.3,0,0.6,0,0.8c-0.2,1.2-0.6,2.2-1.4,3
		c-0.2,0.2-0.4,0.4-0.7,0.6c-0.3,0.2-0.5,0.3-0.8,0.5c-1.4,0.7-3.2,1.1-5.5,1.1c-1.6,0-2.8-0.3-3.8-0.8c-0.1-0.1-0.2-0.1-0.3-0.2
		c-0.9-0.6-1.7-1.4-2.5-2.5C551.4,198.8,551.3,198.6,551.2,198.4z M399.1,197.6l-18.9-45.3H276L257,197.6c-1.1,3.1-3.3,4.7-6.6,4.9
		c-0.2,0-0.4,0-0.5,0c-0.3,0-0.6,0-0.9,0c-1.9-0.2-3.4-0.9-4.5-2.1c-0.1-0.1-0.1-0.1-0.2-0.2c-0.3-0.3-0.5-0.6-0.7-1
		c-0.9-1.3-1.3-2.8-1.3-4.4c0-0.4,0-0.9,0.1-1.3c0.1-0.7,0.3-1.4,0.7-2L320.5,7.9c0.1-0.3,0.2-0.5,0.3-0.8c1.3-2.8,3.4-4.3,6.3-4.5
		c0.3,0,0.5,0,0.8,0c0.3,0,0.7,0,1,0.1c2.9,0.3,5,2.1,6.4,5.3l77.8,183.6c0.5,1,0.8,2.1,0.8,3.3c0,0.4,0,0.9-0.1,1.3
		c-0.3,1.5-1,2.9-2.2,4.1c-0.2,0.2-0.5,0.5-0.8,0.7c-1.2,0.9-2.5,1.5-4,1.6c-0.2,0-0.4,0-0.6,0c-0.3,0-0.6,0-0.9,0
		C402.4,202.2,400.3,200.6,399.1,197.6z M15.4,10.2v184.6c0,2.1-0.6,3.8-1.9,5.2c-0.1,0.1-0.2,0.2-0.3,0.3c-0.3,0.3-0.7,0.6-1,0.9
		c-1.2,0.9-2.7,1.3-4.4,1.3c0,0,0,0,0,0c-2.1,0-3.8-0.6-5.2-1.9c-0.1-0.1-0.2-0.2-0.3-0.3c-0.3-0.3-0.6-0.7-0.9-1
		C0.4,198,0,196.6,0,194.9c0,0,0,0,0,0V10.2C0,8.2,0.6,6.4,1.9,5C2,4.9,2.1,4.8,2.2,4.7c0.3-0.3,0.7-0.6,1-0.9
		C4.5,3,5.9,2.6,7.6,2.6c0,0,0,0,0,0c2.1,0,3.8,0.6,5.2,1.9c0.1,0.1,0.2,0.2,0.3,0.3c0.3,0.3,0.6,0.7,0.9,1
		C14.9,7,15.4,8.5,15.4,10.2C15.4,10.2,15.4,10.2,15.4,10.2z M281.9,138.5h92.4L327.9,27.9L281.9,138.5z M458.2,107.8h41.2
		c7.3,0,14-1.1,20.1-3.4c1.7-0.6,3.4-1.4,5-2.2c0.9-0.4,1.7-0.9,2.5-1.4c5.1-3,9.4-6.9,12.8-11.6c0.7-0.9,1.3-1.9,1.9-2.9
		c3.7-6.1,5.8-12.9,6.2-20.4c0-0.9,0.1-1.8,0.1-2.7c0-8.7-2.1-16.5-6.3-23.4s-9.9-12.3-17.3-16.1c-7.3-3.8-15.7-5.8-25.1-5.8h-41.2
		V107.8z"/>
</g>
<g>
	<path class="st5" d="M915,185.2c-3.6,23.1-8.2,46.5-14,70.3h19.2c11.7-26.3,19.9-48.7,24.7-67.1l-2-3.2H915z"/>
	<ellipse class="st5" cx="930.6" cy="80.2" rx="17.8" ry="19.5"/>
	<path class="st5" d="M95.6,111.2v-1.4c12.5-1.7,22.4-6.5,29.8-14.4c7.3-7.9,11-17.9,11-29.8c0-18.2-5.8-31.4-17.3-39.6
		c-11.5-8.2-30.1-12.3-55.7-12.3H1.7v204.8h73.8c20.5,0,36.8-5.3,48.7-15.8c11.9-10.6,17.9-25.1,17.9-43.6
		C142.1,132.2,126.6,116.2,95.6,111.2z M57.9,195.7h-20c6-24.8,10.9-49.3,14.6-73.3h29.1l2,3.4C78.7,144.9,70.1,168.3,57.9,195.7z
		 M67.3,90.9c-13.7,0-20.6-7.5-20.6-22.5c0-15,6.9-22.5,20.6-22.5c13.7,0,20.6,7.5,20.6,22.5C87.9,83.4,81,90.9,67.3,90.9z"/>
	<path class="st5" d="M291.3,83.6c-13-14.5-29.7-21.7-50-21.7c-21.5,0-38.5,7.1-51.2,21.3c-12.7,14.2-19,33.6-19,58.1
		c0,24.3,6.5,43.7,19.5,58.2c13,14.5,29.6,21.8,49.8,21.8c21.3,0,38.3-7.1,51.1-21.4c12.8-14.3,19.2-33.8,19.2-58.6
		C310.7,117.3,304.2,98.1,291.3,83.6z M218,195.7c0.1-0.4,0.2-0.8,0.3-1.2c5.9-24.4,10.7-48.5,14.3-72.2h29.1l2,3.4
		c-5,19.2-13.5,42.5-25.7,70h-17.5H218z"/>
	<polygon class="st5" points="427.3,0.5 364.1,0.5 364.1,17.6 401.6,20.6 401.6,198.5 353.4,201.3 353.4,218.5 476.6,218.5 
		476.6,201.3 427.3,198.5 	"/>
	<path class="st5" d="M628.8,74.1c-9.5-8.1-24.8-12.2-46-12.2c-17.5,0-35.3,4.5-53.6,13.4l8.8,19.2c16.9-7.7,32.2-11.5,45.9-11.5
		c22.8,0,34.2,11,34.2,33.1v9.7l-28.4,1c-47.6,1.5-71.4,17.7-71.4,48.7c0,14.5,4.3,25.7,13,33.8c8.6,8,20.6,12,35.8,12
		c12,0,21.7-1.7,29.3-5.3c7.6-3.5,14.9-9.8,22.1-18.8h1.1l5.2,21.3H643V113.2C643,95.2,638.2,82.2,628.8,74.1z M553.4,174.2
		c0-15,6.9-22.5,20.6-22.5c13.7,0,20.6,7.5,20.6,22.5c0,15-6.9,22.5-20.6,22.5C560.3,196.7,553.4,189.2,553.4,174.2z"/>
	<path class="st5" d="M766.1,129.5c-17-6.1-27.9-10.8-32.6-14.2c-4.7-3.4-7.1-8-7.1-13.7c0-12.4,11-18.6,33.1-18.6
		c12.8,0,27.7,3.4,44.7,10.1l8.4-20.9c-16-6.9-33.2-10.4-51.7-10.4c-18.4,0-32.8,3.6-43.2,10.9c-10.4,7.2-15.6,17.2-15.6,29.9
		c0,9.2,2.8,17.3,8.5,24c5.6,6.8,19.3,14.2,41.1,22.3c16.5,6,27.1,10.9,31.7,14.8c4.6,3.9,6.9,8.5,6.9,13.9
		c0,15.1-12.8,22.7-38.5,22.7c-16.5,0-33.8-4-51.8-12v23.3c11.9,6.4,29.4,9.7,52.5,9.7c20,0,35.4-4,46.4-12c10.9-8,16.4-19,16.4-33
		c0-10.1-3.2-18.6-9.7-25.6C798.9,143.8,785.8,136.7,766.1,129.5z"/>
</g>
</svg>
