<svg width="947" height="255" viewBox="0 0 947 255" fill="none" xmlns="http://www.w3.org/2000/svg">
<g clip-path="url(#clip0)">
<path d="M913.3 184.6C909.7 207.7 905.1 231.1 899.3 254.9H918.5C930.2 228.6 938.4 206.2 943.2 187.8L941.2 184.6H913.3Z" fill="#E95513"/>
<path d="M928.8 99.2C938.631 99.2 946.6 90.4696 946.6 79.7C946.6 68.9305 938.631 60.2 928.8 60.2C918.969 60.2 911 68.9305 911 79.7C911 90.4696 918.969 99.2 928.8 99.2Z" fill="#E95513"/>
<path d="M93.9 110.7V109.3C106.4 107.6 116.3 102.8 123.7 94.9C131 87 134.7 77 134.7 65.1C134.7 46.9 128.9 33.7 117.4 25.5C105.9 17.3 87.3 13.2 61.7 13.2H0V218H73.8C94.3 218 110.6 212.7 122.5 202.2C134.4 191.6 140.4 177.1 140.4 158.6C140.4 131.7 124.9 115.7 93.9 110.7ZM56.2 195.2H36.2C42.2 170.4 47.1 145.9 50.8 121.9H79.9L81.9 125.3C77 144.4 68.4 167.7 56.2 195.2ZM65.6 90.4C51.9 90.4 45 82.9 45 67.9C45 52.9 51.9 45.4 65.6 45.4C79.3 45.4 86.2 52.9 86.2 67.9C86.1 82.9 79.3 90.4 65.6 90.4Z" fill="#E95513"/>
<path d="M289.5 83.1C276.5 68.6 259.8 61.4 239.5 61.4C218 61.4 201 68.5 188.3 82.7C175.6 96.9 169.3 116.3 169.3 140.8C169.3 165.1 175.8 184.5 188.8 199C201.8 213.5 218.4 220.8 238.6 220.8C259.9 220.8 276.9 213.7 289.7 199.4C302.5 185.1 308.9 165.6 308.9 140.8C309 116.8 302.5 97.5 289.5 83.1ZM216.3 195.2C216.4 194.8 216.5 194.4 216.6 194C222.5 169.6 227.3 145.5 230.9 121.8H260L262 125.2C257 144.4 248.5 167.7 236.3 195.2H218.8H216.3Z" fill="#E95513"/>
<path d="M425.5 0H362.4V17.1L399.9 20V197.9L351.7 200.7V218H474.9V200.7L425.5 197.9V0Z" fill="#E95513"/>
<path d="M627 73.5C617.5 65.4 602.2 61.3 581 61.3C563.5 61.3 545.7 65.8 527.4 74.7L536.2 93.9C553.1 86.2 568.4 82.4 582.1 82.4C604.9 82.4 616.3 93.4 616.3 115.5V125.2L587.9 126.2C540.3 127.7 516.5 143.9 516.5 174.9C516.5 189.4 520.8 200.6 529.5 208.7C538.1 216.7 550.1 220.7 565.3 220.7C577.3 220.7 587 219 594.6 215.4C602.2 211.9 609.5 205.6 616.7 196.6H617.8L623 217.9H641.3V112.6C641.3 94.7 636.5 81.7 627 73.5ZM551.7 173.6C551.7 158.6 558.6 151.1 572.3 151.1C586 151.1 592.9 158.6 592.9 173.6C592.9 188.6 586 196.1 572.3 196.1C558.6 196.2 551.7 188.7 551.7 173.6Z" fill="#E95513"/>
<path d="M764.4 129C747.4 122.9 736.5 118.2 731.8 114.8C727.1 111.4 724.7 106.8 724.7 101.1C724.7 88.7 735.7 82.5 757.8 82.5C770.6 82.5 785.5 85.9 802.5 92.6L810.9 71.7C794.9 64.8 777.7 61.3 759.2 61.3C740.8 61.3 726.4 64.9 716 72.2C705.6 79.4 700.4 89.4 700.4 102.1C700.4 111.3 703.2 119.4 708.9 126.1C714.5 132.9 728.2 140.3 750 148.4C766.5 154.4 777.1 159.3 781.7 163.2C786.3 167.1 788.6 171.7 788.6 177.1C788.6 192.2 775.8 199.8 750.1 199.8C733.6 199.8 716.3 195.8 698.3 187.8V211.1C710.2 217.5 727.7 220.8 750.8 220.8C770.8 220.8 786.2 216.8 797.2 208.8C808.1 200.8 813.6 189.8 813.6 175.8C813.6 165.7 810.4 157.2 803.9 150.2C797.2 143.3 784.1 136.2 764.4 129Z" fill="#E95513"/>
</g>
<defs>
<clipPath id="clip0">
<rect width="946.6" height="254.9" fill="white"/>
</clipPath>
</defs>
</svg>
